<?xml version="1.0" standalone="no"?>
<!DOCTYPE svg PUBLIC "-//W3C//DTD SVG 20010904//EN"
 "http://www.w3.org/TR/2001/REC-SVG-20010904/DTD/svg10.dtd">
<svg version="1.0" xmlns="http://www.w3.org/2000/svg"
 width="3496.000000pt" height="1113.000000pt" viewBox="0 0 3496.000000 1113.000000"
 preserveAspectRatio="xMidYMid meet">

<g transform="translate(0.000000,1113.000000) scale(0.100000,-0.100000)"
fill="#000000" stroke="none">
<path d="M2265 9250 c-3 -5 -37 -10 -75 -10 -38 0 -72 -4 -75 -10 -3 -5 -19
-10 -35 -10 -16 0 -32 -4 -35 -10 -3 -5 -17 -10 -30 -10 -13 0 -27 -4 -30 -10
-3 -5 -21 -17 -40 -26 -19 -9 -35 -20 -35 -25 0 -5 -8 -9 -18 -9 -20 0 -92
-69 -92 -88 0 -6 -9 -23 -21 -36 -29 -34 -69 -115 -69 -142 0 -13 -4 -26 -10
-29 -5 -3 -10 -21 -10 -40 0 -19 -4 -37 -10 -40 -5 -3 -10 -28 -10 -54 0 -26
-5 -52 -10 -57 -6 -6 -14 -53 -18 -105 -9 -115 -15 -5983 -7 -6057 5 -43 14
-62 43 -93 62 -70 55 -69 528 -69 271 0 425 4 429 10 3 6 28 10 54 10 40 0 51
5 77 33 16 17 36 43 44 57 16 27 16 -12 23 3907 2 1656 -9 1485 98 1485 35 0
73 -4 84 -8 34 -12 75 -56 75 -80 0 -13 5 -26 10 -29 6 -3 10 -15 10 -26 0
-11 7 -22 15 -25 8 -4 15 -19 15 -34 0 -16 5 -32 10 -35 6 -3 10 -17 10 -30 0
-13 5 -27 10 -30 6 -3 10 -15 10 -26 0 -10 5 -19 10 -19 6 0 10 -11 10 -25 0
-25 2 -31 33 -93 9 -19 17 -40 17 -48 0 -8 5 -14 10 -14 6 0 10 -13 10 -29 0
-17 5 -33 10 -36 6 -3 10 -17 10 -30 0 -13 5 -27 10 -30 6 -3 10 -15 10 -26 0
-10 5 -19 10 -19 6 0 10 -10 10 -23 0 -13 7 -32 15 -43 8 -10 15 -29 15 -41 0
-12 5 -25 10 -28 6 -3 10 -15 10 -26 0 -10 5 -19 10 -19 6 0 10 -13 10 -29 0
-17 5 -33 10 -36 6 -3 10 -17 10 -30 0 -13 5 -27 10 -30 6 -3 10 -14 10 -25 0
-10 7 -21 16 -24 9 -3 14 -12 11 -20 -3 -7 1 -26 9 -41 8 -15 14 -36 14 -46 0
-10 5 -21 10 -24 6 -3 10 -15 10 -26 0 -10 5 -19 10 -19 6 0 10 -11 10 -25 0
-14 4 -33 9 -43 13 -26 34 -76 35 -84 1 -4 7 -13 14 -20 6 -6 12 -24 12 -39 0
-15 5 -31 10 -34 6 -3 10 -17 10 -30 0 -13 5 -27 10 -30 6 -3 10 -15 10 -26 0
-10 5 -19 10 -19 6 0 10 -10 10 -23 0 -12 7 -32 15 -43 8 -12 12 -24 9 -27 -3
-3 6 -26 20 -51 14 -26 26 -58 26 -71 0 -14 5 -25 10 -25 6 0 10 -13 10 -29 0
-17 5 -33 10 -36 6 -3 10 -14 10 -25 0 -10 7 -21 16 -24 10 -4 13 -13 9 -25
-3 -11 1 -25 10 -34 8 -9 15 -25 15 -36 0 -11 9 -36 20 -56 11 -20 20 -42 20
-50 0 -9 4 -23 9 -33 5 -9 15 -36 22 -60 7 -23 18 -47 26 -53 7 -6 13 -24 13
-40 0 -16 5 -29 10 -29 6 0 10 -11 10 -25 0 -13 9 -40 20 -60 11 -20 20 -44
20 -55 0 -10 5 -22 10 -25 6 -3 10 -15 10 -26 0 -11 11 -40 25 -65 14 -25 25
-56 25 -69 0 -14 5 -25 10 -25 6 0 10 -11 10 -23 0 -25 25 -83 40 -92 4 -3 6
-13 3 -23 -2 -10 3 -24 11 -31 9 -8 16 -24 16 -37 0 -13 9 -39 20 -59 11 -20
20 -42 20 -50 0 -9 4 -23 9 -33 5 -9 15 -36 22 -60 7 -23 18 -47 26 -53 7 -6
13 -22 13 -35 0 -12 5 -26 10 -29 6 -3 10 -17 10 -30 0 -14 9 -40 20 -60 11
-20 20 -44 20 -55 0 -10 5 -22 10 -25 6 -3 10 -16 10 -28 0 -13 7 -32 15 -43
8 -12 12 -24 9 -26 -2 -3 2 -11 11 -18 8 -7 15 -23 15 -36 0 -12 5 -26 10 -29
6 -3 10 -17 10 -30 0 -14 9 -40 20 -60 11 -20 20 -44 20 -54 0 -10 7 -24 15
-31 9 -7 14 -19 11 -25 -2 -7 6 -34 20 -61 13 -26 24 -55 24 -65 0 -10 5 -21
10 -24 6 -3 10 -15 10 -26 0 -11 9 -39 20 -61 11 -23 20 -49 20 -59 0 -9 7
-22 15 -29 8 -7 15 -23 15 -36 0 -13 9 -39 20 -59 11 -20 20 -44 20 -55 0 -10
5 -22 10 -25 6 -3 10 -17 10 -30 0 -13 5 -27 10 -30 6 -3 10 -14 10 -24 0 -10
7 -24 15 -31 8 -7 15 -23 15 -36 0 -12 5 -26 10 -29 6 -3 10 -15 10 -26 0 -10
5 -29 12 -42 24 -46 28 -57 28 -70 0 -18 28 -75 41 -82 5 -4 9 -17 9 -30 0
-12 14 -49 30 -80 17 -31 30 -63 30 -71 0 -8 5 -14 10 -14 6 0 10 -9 10 -20 0
-11 7 -23 16 -27 8 -3 13 -11 10 -19 -3 -7 2 -18 10 -24 8 -7 14 -18 14 -25 0
-7 7 -18 15 -25 9 -7 25 -32 35 -54 10 -23 33 -55 50 -73 16 -18 30 -37 30
-43 0 -16 169 -180 185 -180 7 0 18 -7 25 -15 7 -9 33 -25 56 -35 24 -11 46
-24 49 -30 3 -5 19 -10 35 -10 16 0 32 -5 35 -10 3 -5 16 -10 29 -10 12 0 26
-4 31 -9 16 -15 141 -22 488 -27 288 -4 327 -3 327 11 0 8 -4 15 -10 15 -5 0
-10 14 -10 30 0 17 -4 30 -10 30 -5 0 -10 11 -10 25 0 25 -2 31 -33 93 -10 19
-15 38 -11 43 3 5 -2 12 -10 15 -9 4 -16 18 -16 34 0 16 -4 32 -10 35 -5 3
-10 15 -10 26 0 10 -4 27 -9 37 -5 9 -17 43 -26 74 -9 32 -21 61 -26 64 -5 3
-7 9 -4 14 3 4 -2 13 -10 20 -8 7 -15 25 -15 41 0 15 -4 31 -10 34 -5 3 -10
17 -10 30 0 13 -4 27 -10 30 -5 3 -10 17 -10 30 0 13 -4 27 -10 30 -5 3 -10
14 -10 24 0 10 -7 24 -15 31 -9 7 -13 21 -10 30 3 9 -1 23 -10 30 -8 7 -15 23
-15 36 0 12 -4 26 -10 29 -5 3 -10 19 -10 35 0 16 -4 32 -10 35 -5 3 -10 17
-10 30 0 13 -4 27 -10 30 -5 3 -10 14 -10 25 0 10 -7 21 -16 24 -11 4 -14 13
-10 30 4 15 0 28 -9 36 -8 7 -15 23 -15 36 0 12 -4 26 -10 29 -5 3 -10 15 -10
26 0 10 -4 28 -10 39 -5 11 -14 29 -20 40 -5 11 -10 28 -10 39 0 10 -7 24 -15
31 -9 7 -14 19 -11 26 2 6 -2 20 -9 31 -8 10 -15 30 -15 45 0 15 -4 30 -10 33
-5 3 -10 17 -10 30 0 13 -4 27 -10 30 -5 3 -10 15 -10 26 0 10 -4 19 -10 19
-5 0 -10 13 -10 29 0 16 -7 34 -15 41 -8 7 -12 16 -9 22 3 5 -1 20 -10 33 -9
13 -16 33 -16 44 0 11 -9 36 -20 56 -11 20 -20 47 -20 60 0 14 -4 25 -10 25
-5 0 -10 11 -10 25 0 25 -2 31 -33 93 -9 19 -17 42 -17 52 0 10 -4 22 -10 25
-5 3 -10 15 -10 26 0 10 -4 19 -10 19 -5 0 -10 13 -10 29 0 17 -4 33 -10 36
-5 3 -10 17 -10 30 0 13 -4 27 -10 30 -5 3 -10 14 -10 23 0 9 -7 30 -15 46 -8
15 -15 37 -15 47 0 10 -4 21 -10 24 -5 3 -10 15 -10 26 0 10 -4 19 -10 19 -5
0 -10 13 -10 29 0 17 -4 33 -10 36 -5 3 -10 15 -10 26 0 19 -2 26 -33 87 -10
19 -15 37 -12 42 3 4 -2 13 -10 20 -8 7 -15 23 -15 36 0 12 -4 26 -10 29 -5 3
-10 15 -10 26 0 10 -4 27 -9 37 -5 9 -15 37 -22 62 -7 25 -17 54 -23 65 -5 11
-11 27 -12 35 -2 8 -8 16 -13 18 -6 2 -11 17 -11 32 0 16 -4 32 -10 35 -5 3
-10 17 -10 30 0 13 -4 27 -10 30 -5 3 -10 17 -10 30 0 13 -4 27 -10 30 -5 3
-10 14 -10 24 0 10 -7 24 -15 31 -9 7 -13 21 -10 30 3 9 -1 23 -10 30 -8 7
-15 23 -15 36 0 12 -4 26 -10 29 -5 3 -10 19 -10 35 0 16 -4 32 -10 35 -5 3
-10 15 -10 26 0 10 -4 27 -9 37 -5 9 -14 31 -21 47 -6 17 -18 43 -26 58 -8 16
-14 37 -14 47 0 10 -4 22 -10 25 -5 3 -10 15 -10 26 0 11 -9 39 -20 61 -11 23
-20 52 -20 64 0 12 -7 24 -15 28 -8 3 -12 12 -9 21 4 8 -1 26 -10 40 -9 13
-16 33 -16 44 0 11 -4 23 -10 26 -5 3 -10 15 -10 26 0 19 -4 28 -28 76 -7 13
-12 31 -12 42 0 10 -7 24 -15 31 -8 7 -12 16 -9 22 3 5 -1 20 -10 33 -9 13
-16 33 -16 44 0 11 -9 36 -20 56 -11 20 -20 47 -20 60 0 14 -4 25 -10 25 -5 0
-10 7 -10 16 0 23 -31 113 -41 120 -5 3 -9 14 -9 25 0 10 -5 29 -12 42 -24 48
-28 57 -28 76 0 11 -4 23 -10 26 -5 3 -10 17 -10 30 0 13 -4 27 -10 30 -5 3
-10 16 -10 28 0 13 -7 32 -15 43 -8 12 -12 24 -9 26 2 3 -2 11 -11 18 -8 7
-15 25 -15 41 0 16 -4 29 -10 29 -5 0 -10 13 -10 29 0 17 -4 33 -10 36 -5 3
-10 16 -10 29 0 12 -4 26 -9 32 -4 5 -14 30 -21 56 -7 26 -19 53 -26 59 -8 6
-14 22 -14 35 0 12 -4 26 -10 29 -5 3 -10 19 -10 36 0 16 -4 29 -10 29 -5 0
-10 13 -10 29 0 17 -4 33 -10 36 -5 3 -10 14 -10 25 0 10 -7 20 -15 24 -11 4
-14 13 -9 31 4 18 2 27 -10 31 -9 4 -16 18 -16 34 0 16 -4 32 -10 35 -5 3 -10
15 -10 26 0 10 -4 27 -9 37 -5 9 -15 36 -22 60 -7 23 -18 47 -25 53 -6 5 -10
18 -7 28 2 9 -3 23 -11 30 -9 8 -16 26 -16 42 0 15 -4 31 -10 34 -5 3 -10 17
-10 30 0 13 -4 27 -10 30 -5 3 -10 17 -10 30 0 13 -4 27 -10 30 -5 3 -10 14
-10 24 0 10 -6 24 -14 30 -8 7 -12 20 -9 30 2 9 -3 23 -11 30 -9 8 -16 24 -16
37 0 12 -4 26 -10 29 -5 3 -10 17 -10 30 0 12 -13 49 -30 80 -16 31 -30 63
-30 71 0 16 -39 92 -51 100 -5 3 -18 24 -28 47 -11 24 -29 51 -40 61 -12 11
-21 25 -21 33 0 17 -118 133 -135 133 -6 0 -20 9 -30 20 -10 11 -24 20 -30 20
-7 0 -18 7 -25 15 -7 8 -23 15 -36 15 -12 0 -25 4 -28 9 -7 10 -46 18 -166 33
-116 14 -1167 22 -1175 8z"/>
<path d="M4305 9251 c-3 -5 -1 -12 5 -16 5 -3 10 -15 10 -26 0 -10 5 -19 10
-19 6 0 10 -10 10 -23 0 -12 7 -32 15 -43 8 -12 12 -24 9 -27 -3 -3 6 -26 20
-51 14 -26 26 -58 26 -71 0 -13 5 -27 10 -30 6 -3 10 -15 10 -26 0 -10 4 -27
9 -37 21 -40 34 -78 32 -90 -1 -7 5 -15 14 -18 8 -4 15 -18 15 -34 0 -16 5
-32 10 -35 6 -3 10 -17 10 -30 0 -13 5 -27 10 -30 6 -3 10 -15 10 -26 0 -10 5
-19 10 -19 6 0 10 -13 10 -29 0 -16 7 -34 15 -41 8 -7 12 -16 9 -22 -3 -5 1
-20 10 -33 9 -13 16 -31 16 -40 0 -8 5 -15 10 -15 6 0 10 -13 10 -29 0 -17 5
-33 10 -36 6 -3 10 -17 10 -30 0 -13 5 -27 10 -30 6 -3 10 -13 10 -21 0 -9 6
-22 14 -30 8 -7 12 -22 9 -32 -2 -10 3 -24 11 -31 9 -8 16 -24 16 -37 0 -12 5
-26 10 -29 6 -3 10 -15 10 -26 0 -10 5 -19 10 -19 6 0 10 -13 10 -29 0 -17 5
-33 10 -36 6 -3 10 -16 10 -29 0 -12 3 -26 7 -30 7 -6 32 -71 37 -94 1 -7 8
-18 14 -24 7 -7 12 -22 12 -34 0 -13 5 -26 10 -29 6 -3 10 -15 10 -26 0 -11 9
-39 20 -61 11 -23 20 -49 20 -59 0 -9 7 -22 15 -29 9 -7 14 -18 12 -24 -3 -6
2 -24 11 -41 8 -16 19 -38 23 -47 5 -10 9 -27 9 -37 0 -11 5 -23 10 -26 6 -3
10 -17 10 -30 0 -13 5 -27 10 -30 6 -3 10 -14 10 -24 0 -10 7 -24 15 -31 9 -7
13 -21 10 -30 -3 -9 1 -23 10 -30 8 -7 15 -23 15 -36 0 -12 5 -26 10 -29 6 -3
10 -15 10 -26 0 -11 9 -39 20 -61 11 -23 20 -49 20 -58 0 -9 5 -21 10 -26 6
-6 13 -23 16 -37 2 -15 13 -43 24 -62 11 -20 20 -42 20 -50 0 -9 4 -23 9 -33
5 -9 15 -36 22 -60 7 -23 18 -47 25 -53 6 -5 10 -18 7 -28 -2 -9 3 -23 11 -30
9 -8 16 -24 16 -37 0 -13 9 -39 20 -59 11 -20 20 -47 20 -60 0 -14 5 -25 10
-25 6 0 10 -7 10 -16 0 -23 31 -113 41 -120 5 -3 9 -14 9 -25 0 -10 5 -19 10
-19 6 0 10 -13 10 -29 0 -17 5 -33 10 -36 6 -3 10 -17 10 -30 0 -13 5 -27 10
-30 6 -3 10 -15 10 -26 0 -10 5 -19 10 -19 6 0 10 -10 10 -23 0 -13 7 -32 15
-43 8 -10 15 -29 15 -41 0 -12 5 -25 10 -28 6 -3 10 -15 10 -26 0 -10 5 -19
10 -19 6 0 10 -13 10 -29 0 -17 5 -33 10 -36 6 -3 10 -17 10 -30 0 -13 5 -27
10 -30 6 -3 10 -14 10 -25 0 -10 7 -20 15 -24 9 -3 15 -18 15 -35 0 -16 5 -33
10 -36 6 -3 10 -17 10 -30 0 -13 5 -27 10 -30 6 -3 10 -15 10 -26 0 -10 5 -19
10 -19 6 0 10 -11 10 -25 0 -14 4 -33 9 -43 17 -33 34 -77 38 -97 2 -11 8 -24
13 -29 6 -6 10 -18 10 -28 0 -10 5 -18 10 -18 6 0 10 -13 10 -29 0 -17 5 -33
10 -36 6 -3 10 -17 10 -30 0 -13 5 -27 10 -30 6 -3 10 -14 10 -24 0 -10 7 -24
15 -31 8 -7 12 -16 9 -22 -3 -5 1 -20 10 -33 9 -13 16 -33 16 -44 0 -11 5 -23
10 -26 6 -3 10 -15 10 -26 0 -10 5 -19 10 -19 6 0 10 -13 10 -29 0 -17 5 -33
10 -36 6 -3 10 -17 10 -29 0 -13 6 -29 14 -36 8 -6 12 -18 9 -26 -3 -7 2 -17
11 -20 9 -4 16 -18 16 -34 0 -16 5 -32 10 -35 6 -3 10 -17 10 -30 0 -13 5 -27
10 -30 6 -3 10 -15 10 -26 0 -10 5 -19 10 -19 6 0 10 -13 10 -29 0 -16 7 -34
15 -41 8 -7 12 -16 9 -22 -3 -5 1 -20 10 -33 9 -13 16 -36 16 -50 0 -14 5 -25
10 -25 6 0 10 -9 10 -19 0 -11 5 -23 10 -26 6 -3 10 -17 10 -30 0 -13 5 -27
10 -30 6 -3 10 -17 10 -30 0 -13 5 -27 10 -30 6 -3 10 -14 10 -24 0 -10 7 -24
15 -31 8 -7 15 -23 15 -36 0 -12 5 -26 10 -29 6 -3 10 -15 10 -26 0 -11 9 -39
20 -61 11 -23 20 -49 20 -58 0 -9 3 -20 7 -24 7 -6 32 -71 37 -94 1 -7 8 -18
14 -24 7 -7 12 -22 12 -34 0 -13 5 -26 10 -29 6 -3 10 -15 10 -26 0 -10 4 -27
9 -37 5 -9 14 -35 21 -57 7 -22 19 -48 27 -57 8 -9 12 -21 9 -26 -3 -5 1 -18
9 -28 8 -10 15 -29 15 -41 0 -12 9 -38 20 -58 11 -20 20 -44 20 -55 0 -10 5
-22 10 -25 6 -3 10 -16 10 -28 0 -13 7 -32 15 -43 8 -12 12 -24 9 -26 -2 -3 2
-11 11 -18 8 -7 15 -21 15 -31 0 -11 5 -28 10 -39 6 -11 15 -29 20 -40 6 -11
10 -26 10 -34 0 -13 14 -44 35 -76 5 -8 10 -22 12 -30 1 -8 7 -16 12 -18 6 -2
11 -12 11 -23 0 -10 5 -19 10 -19 6 0 10 -6 10 -13 0 -19 65 -146 89 -173 12
-13 21 -30 21 -38 0 -7 9 -21 20 -31 11 -10 20 -23 20 -29 0 -5 14 -25 31 -42
17 -18 37 -43 43 -56 6 -13 21 -27 34 -33 12 -5 22 -15 22 -21 0 -13 43 -54
57 -54 5 0 18 -9 28 -20 10 -11 25 -20 34 -20 9 0 22 -9 29 -20 7 -11 19 -20
27 -20 9 0 27 -7 40 -16 13 -9 28 -13 33 -10 6 3 15 -1 22 -9 7 -9 29 -15 51
-15 21 0 41 -4 44 -10 3 -6 32 -10 64 -10 31 0 62 -5 67 -10 14 -14 515 -6
604 9 36 6 84 13 108 17 23 3 45 10 48 15 3 5 13 9 23 9 10 0 24 6 31 14 6 8
17 13 24 10 7 -3 27 6 44 20 16 15 34 26 39 26 5 0 22 14 39 31 16 17 39 35
52 40 12 5 22 15 22 24 0 8 9 15 20 15 13 0 20 7 20 18 0 10 20 38 45 62 25
24 45 49 45 55 0 6 11 22 25 35 13 12 22 26 20 30 -3 4 4 15 15 25 22 20 50
71 50 92 0 7 5 13 10 13 6 0 10 9 10 20 0 11 7 23 16 27 8 3 13 12 10 19 -3 7
-1 16 4 19 12 7 40 65 40 82 0 7 5 13 10 13 6 0 10 9 10 19 0 11 5 23 10 26 6
3 10 17 10 29 0 13 7 29 15 36 9 7 13 15 11 18 -3 2 1 14 9 26 8 11 15 31 15
43 0 13 5 23 10 23 6 0 10 11 10 25 0 13 9 40 20 60 11 20 20 46 20 59 0 13 7
27 16 30 10 4 13 13 9 27 -4 12 -1 28 7 37 25 32 38 62 38 87 0 14 5 25 10 25
6 0 10 10 10 23 0 13 11 45 24 71 14 27 22 54 20 61 -3 7 2 15 10 18 9 4 16
18 16 31 0 14 9 41 20 61 11 20 20 47 20 60 0 14 5 25 10 25 6 0 10 10 10 23
0 19 15 56 61 149 5 10 9 29 9 43 0 14 5 25 10 25 6 0 10 9 10 19 0 11 5 23
10 26 6 3 10 17 10 29 0 13 7 29 15 36 9 8 13 21 9 32 -3 11 1 27 9 36 9 9 17
22 18 27 2 14 19 56 30 77 5 10 9 29 9 43 0 14 5 25 10 25 6 0 10 9 10 19 0
11 5 23 10 26 6 3 10 17 10 29 0 13 7 29 16 37 10 8 13 21 9 36 -4 16 -1 25
10 29 8 4 15 14 15 24 0 11 5 22 10 25 6 3 10 17 10 30 0 13 5 27 10 30 6 3
10 19 10 36 0 16 5 29 10 29 6 0 10 7 10 15 0 9 7 27 16 40 9 13 13 28 10 33
-3 6 1 15 9 22 8 7 15 25 15 41 0 16 5 29 10 29 6 0 10 9 10 19 0 11 5 23 10
26 6 3 10 17 10 30 0 13 5 27 10 30 6 3 10 19 10 35 0 15 5 30 11 32 5 2 11
10 13 18 3 16 22 62 37 92 5 10 9 29 9 43 0 14 5 25 10 25 6 0 10 9 10 19 0
11 5 23 10 26 6 3 10 17 10 29 0 13 7 29 15 36 9 7 13 21 9 35 -4 15 0 24 10
28 9 4 16 15 16 26 0 11 5 23 10 26 6 3 10 17 10 30 0 13 5 27 10 30 6 3 10
19 10 36 0 16 5 29 10 29 6 0 10 9 10 19 0 11 5 23 10 26 6 3 10 17 10 29 0
13 7 29 16 37 8 7 13 21 11 30 -3 10 1 23 9 30 8 6 14 20 14 30 0 10 5 21 10
24 6 3 10 17 10 30 0 13 5 27 10 30 6 3 10 19 10 36 0 16 5 29 10 29 6 0 10 7
10 15 0 9 7 27 16 40 9 13 13 28 10 33 -3 6 0 15 7 21 8 6 19 30 26 53 7 24
17 51 22 60 5 10 9 26 9 37 0 10 6 24 14 30 8 7 12 21 8 33 -3 13 1 24 12 30
9 5 16 18 16 28 0 10 5 22 10 25 6 3 10 17 10 30 0 13 5 27 10 30 6 3 10 15
10 26 0 10 5 28 10 39 6 11 15 29 20 40 6 11 10 28 10 39 0 10 7 24 16 32 8 7
13 21 11 30 -3 10 1 23 9 30 8 6 14 20 14 30 0 10 5 21 10 24 6 3 10 17 10 30
0 13 5 27 10 30 6 3 10 15 10 26 0 10 5 28 10 39 5 11 14 29 20 40 6 11 10 28
10 39 0 10 7 24 15 31 8 7 15 21 15 31 0 11 5 28 10 39 6 11 15 29 20 40 6 11
10 28 10 39 0 10 6 24 14 31 8 6 12 18 9 26 -3 8 3 24 12 34 10 11 15 20 10
20 -4 0 0 11 9 25 9 13 16 31 16 39 0 9 9 31 20 51 11 20 20 46 20 60 0 13 5
27 10 30 6 3 10 16 10 29 0 12 6 28 13 34 6 7 12 16 13 20 0 4 5 18 11 32 6
14 14 33 17 43 3 9 16 21 30 27 13 5 26 13 29 17 10 16 145 -3 167 -22 20 -18
20 -35 20 -2676 0 -1761 3 -2660 10 -2664 6 -3 10 -13 10 -21 0 -8 18 -32 40
-54 36 -36 45 -40 90 -40 28 0 50 -4 50 -10 0 -14 787 -14 795 0 3 5 32 10 64
10 50 0 61 4 82 27 14 16 31 41 37 56 16 37 18 6135 2 6151 -6 6 -10 36 -10
67 0 32 -4 61 -10 64 -5 3 -10 24 -10 45 0 21 -4 42 -10 45 -5 3 -10 21 -10
38 -1 18 -9 46 -18 63 -9 18 -26 49 -36 70 -26 52 -141 171 -191 195 -22 11
-56 29 -75 39 -19 11 -49 19 -66 20 -16 0 -34 4 -40 9 -17 17 -138 23 -589 27
-336 4 -460 2 -488 -7 -30 -10 -42 -10 -61 1 -15 8 -34 10 -48 5 -13 -4 -59
-11 -103 -16 -107 -11 -154 -19 -161 -30 -3 -5 -16 -9 -28 -9 -13 0 -29 -7
-36 -15 -7 -8 -18 -15 -25 -15 -6 0 -20 -9 -30 -20 -10 -11 -23 -20 -29 -20
-15 0 -136 -122 -136 -136 0 -6 -9 -19 -20 -29 -21 -19 -70 -111 -70 -132 0
-7 -4 -13 -10 -13 -5 0 -10 -9 -10 -19 0 -10 -7 -22 -16 -25 -9 -3 -14 -13
-10 -21 3 -8 1 -17 -4 -20 -15 -9 -40 -67 -40 -92 0 -12 -4 -23 -10 -23 -5 0
-10 -9 -10 -19 0 -11 -4 -23 -10 -26 -5 -3 -10 -15 -10 -26 0 -11 -7 -31 -16
-44 -9 -13 -13 -28 -10 -33 3 -6 -1 -15 -9 -22 -8 -7 -15 -25 -15 -41 0 -16
-4 -29 -10 -29 -5 0 -10 -9 -10 -19 0 -11 -4 -23 -10 -26 -5 -3 -10 -17 -10
-30 0 -13 -4 -27 -10 -30 -5 -3 -10 -19 -10 -35 0 -16 -4 -32 -10 -35 -5 -3
-10 -17 -10 -29 0 -13 -7 -29 -15 -36 -8 -7 -15 -25 -15 -41 0 -16 -4 -29 -10
-29 -5 0 -10 -9 -10 -19 0 -11 -4 -23 -10 -26 -5 -3 -10 -17 -10 -30 0 -13 -4
-27 -10 -30 -5 -3 -10 -17 -10 -31 0 -14 -7 -32 -15 -41 -9 -8 -13 -23 -10
-33 3 -9 -1 -22 -8 -28 -8 -7 -19 -31 -26 -54 -7 -24 -17 -51 -22 -60 -5 -10
-9 -27 -9 -37 0 -11 -4 -23 -10 -26 -5 -3 -10 -16 -10 -29 0 -12 -5 -27 -12
-34 -6 -6 -13 -17 -14 -24 -5 -23 -30 -88 -37 -94 -4 -4 -7 -18 -7 -30 0 -13
-4 -26 -10 -29 -5 -3 -10 -19 -10 -36 0 -16 -4 -29 -10 -29 -5 0 -10 -10 -10
-23 0 -13 -11 -46 -25 -73 -14 -27 -25 -57 -25 -66 0 -9 -4 -20 -10 -23 -5 -3
-10 -17 -10 -30 0 -13 -4 -27 -10 -30 -5 -3 -10 -15 -10 -26 0 -10 -5 -29 -12
-42 -24 -47 -28 -57 -28 -72 0 -9 -7 -27 -16 -41 -9 -13 -14 -27 -11 -31 4 -3
0 -15 -8 -27 -8 -11 -15 -31 -15 -43 0 -13 -4 -23 -10 -23 -5 0 -10 -11 -10
-25 0 -13 -9 -40 -20 -60 -11 -20 -20 -45 -20 -56 0 -11 -7 -31 -16 -44 -9
-13 -13 -28 -10 -33 3 -6 -1 -15 -9 -22 -8 -7 -15 -21 -15 -31 0 -11 -4 -28
-10 -39 -5 -11 -14 -29 -20 -40 -5 -11 -10 -29 -10 -39 0 -11 -4 -23 -10 -26
-5 -3 -10 -14 -10 -24 0 -10 -6 -31 -14 -46 -8 -15 -12 -33 -10 -40 3 -6 -2
-18 -11 -25 -8 -7 -15 -21 -15 -31 0 -11 -5 -29 -12 -42 -24 -48 -28 -57 -28
-76 0 -11 -4 -23 -10 -26 -5 -3 -10 -17 -10 -29 0 -13 -7 -29 -16 -37 -10 -8
-13 -21 -9 -36 4 -16 1 -25 -10 -29 -8 -4 -15 -14 -15 -24 0 -11 -5 -22 -10
-25 -5 -3 -10 -17 -10 -30 0 -13 -4 -27 -10 -30 -5 -3 -10 -19 -10 -36 0 -16
-4 -29 -10 -29 -5 0 -10 -13 -10 -29 0 -16 -7 -34 -15 -41 -9 -7 -13 -15 -11
-18 3 -2 -1 -14 -9 -26 -8 -11 -15 -30 -15 -43 0 -12 -4 -25 -10 -28 -5 -3
-10 -17 -10 -30 0 -13 -4 -27 -10 -30 -5 -3 -10 -17 -10 -30 0 -13 -4 -27 -10
-30 -5 -3 -10 -19 -10 -36 0 -16 -4 -29 -10 -29 -5 0 -10 -6 -10 -14 0 -8 -8
-29 -17 -48 -31 -62 -33 -68 -33 -92 0 -14 -4 -28 -10 -31 -5 -3 -10 -15 -10
-25 0 -11 -9 -35 -20 -55 -11 -20 -20 -45 -20 -56 0 -11 -7 -31 -16 -44 -9
-13 -13 -28 -10 -33 3 -6 -1 -15 -9 -22 -8 -7 -15 -23 -15 -36 0 -12 -5 -26
-10 -29 -6 -3 -10 -19 -10 -36 0 -16 -4 -29 -10 -29 -5 0 -10 -9 -10 -19 0
-11 -4 -23 -10 -26 -5 -3 -10 -14 -10 -24 0 -10 -7 -32 -16 -49 -8 -18 -13
-36 -10 -41 3 -5 -1 -14 -9 -21 -8 -7 -15 -20 -15 -29 0 -10 -9 -36 -20 -59
-11 -22 -20 -50 -20 -61 0 -11 -4 -23 -10 -26 -6 -3 -10 -15 -10 -26 0 -11 -7
-31 -16 -44 -9 -13 -13 -28 -10 -33 3 -6 -1 -15 -9 -22 -8 -7 -15 -23 -15 -36
0 -13 -9 -39 -20 -59 -11 -20 -20 -46 -20 -60 0 -13 -4 -27 -10 -30 -5 -3 -10
-17 -10 -29 0 -13 -7 -29 -15 -36 -9 -7 -13 -21 -10 -30 3 -9 -1 -23 -10 -30
-8 -7 -15 -21 -15 -31 0 -10 -4 -21 -10 -24 -5 -3 -10 -17 -10 -30 0 -13 -4
-27 -10 -30 -6 -3 -10 -17 -10 -30 0 -13 -4 -27 -10 -30 -5 -3 -10 -19 -10
-35 0 -16 -7 -30 -16 -34 -9 -3 -14 -12 -11 -19 3 -7 -1 -21 -9 -32 -8 -10
-14 -26 -14 -35 0 -9 -16 -31 -35 -50 -27 -26 -42 -33 -72 -33 -60 1 -123 35
-123 67 0 9 -4 16 -10 16 -5 0 -10 11 -10 25 0 13 -9 40 -20 60 -11 20 -20 45
-20 55 0 20 -2 27 -33 88 -9 19 -17 42 -17 52 0 10 -4 22 -10 25 -5 3 -10 17
-10 30 0 14 -9 40 -20 60 -11 20 -20 44 -20 55 0 10 -4 22 -10 25 -5 3 -10 15
-10 26 0 11 -5 30 -12 42 -7 12 -13 31 -15 42 -2 11 -8 24 -13 29 -6 6 -10 18
-10 28 0 10 -4 18 -10 18 -5 0 -10 13 -10 29 0 17 -4 33 -10 36 -5 3 -10 17
-10 30 0 13 -4 27 -10 30 -5 3 -10 17 -10 30 0 13 -4 27 -10 30 -5 3 -10 14
-10 23 0 9 -11 39 -25 66 -14 27 -25 60 -25 73 0 13 -4 23 -10 23 -5 0 -10 13
-10 29 0 17 -4 32 -8 35 -4 3 -14 28 -22 56 -8 29 -20 54 -27 57 -7 3 -13 18
-13 33 0 16 -4 32 -10 35 -5 3 -10 17 -10 30 0 13 -4 27 -10 30 -5 3 -10 17
-10 30 0 13 -4 27 -10 30 -5 3 -10 14 -10 24 0 10 -6 24 -14 30 -8 7 -12 20
-9 30 2 9 -3 23 -11 30 -9 8 -16 26 -16 42 0 16 -4 29 -10 29 -5 0 -10 13 -10
29 0 17 -4 33 -10 36 -5 3 -10 17 -10 30 0 13 -4 27 -10 30 -5 3 -10 14 -10
24 0 10 -6 24 -14 30 -8 7 -12 20 -9 30 2 9 -3 23 -11 30 -9 8 -16 24 -16 37
0 12 -4 26 -10 29 -5 3 -10 17 -10 30 0 14 -9 40 -20 60 -11 20 -20 47 -20 60
0 14 -4 25 -10 25 -5 0 -10 10 -10 23 0 13 -7 32 -15 43 -8 10 -15 29 -15 41
0 12 -4 25 -10 28 -5 3 -10 15 -10 26 0 10 -4 28 -10 39 -5 11 -14 29 -20 40
-5 11 -10 29 -10 39 0 11 -4 23 -10 26 -5 3 -10 17 -10 29 0 13 -7 29 -15 36
-9 7 -14 19 -11 25 2 7 -6 34 -20 61 -13 26 -24 58 -24 71 0 13 -4 23 -10 23
-5 0 -10 11 -10 25 0 14 -4 33 -9 43 -19 36 -34 77 -33 85 2 5 -5 23 -14 40
-31 59 -34 67 -34 86 0 11 -4 23 -10 26 -5 3 -10 17 -10 30 0 13 -4 27 -10 30
-5 3 -10 16 -10 28 0 13 -7 33 -16 45 -8 12 -12 22 -8 22 4 0 -1 9 -11 20 -9
10 -15 26 -12 34 4 9 0 22 -8 30 -8 8 -15 26 -15 40 0 14 -4 28 -10 31 -5 3
-10 17 -10 30 0 13 -4 27 -10 30 -5 3 -10 17 -10 30 0 13 -4 27 -10 30 -5 3
-10 14 -10 24 0 10 -7 24 -15 31 -8 7 -15 23 -15 36 0 12 -4 26 -10 29 -5 3
-10 19 -10 35 0 16 -4 32 -10 35 -5 3 -10 15 -10 25 0 11 -9 35 -20 55 -11 20
-20 46 -20 59 0 13 -7 29 -15 36 -8 7 -15 23 -15 36 0 12 -4 26 -10 29 -5 3
-10 17 -10 30 0 13 -4 27 -10 30 -5 3 -10 15 -10 26 0 10 -4 19 -10 19 -5 0
-10 13 -10 29 0 17 -4 33 -10 36 -5 3 -10 17 -10 29 0 13 -7 29 -15 36 -8 7
-15 25 -15 41 0 15 -4 31 -10 34 -5 3 -10 17 -10 30 0 13 -4 27 -10 30 -5 3
-10 15 -10 26 0 10 -4 19 -10 19 -5 0 -10 13 -10 29 0 17 -4 33 -10 36 -5 3
-10 17 -10 29 0 13 -7 29 -15 36 -8 7 -15 21 -15 31 0 11 -5 29 -12 42 -24 48
-28 57 -28 76 0 11 -4 23 -10 26 -5 3 -10 17 -10 30 0 13 -4 27 -10 30 -5 3
-10 15 -10 26 0 11 -5 30 -12 42 -7 12 -13 31 -15 42 -2 11 -8 24 -13 29 -6 6
-10 18 -10 28 0 10 -4 18 -10 18 -5 0 -10 13 -10 29 0 17 -4 33 -10 36 -5 3
-10 17 -10 30 0 13 -4 27 -10 30 -5 3 -10 14 -10 25 0 10 -7 21 -16 24 -9 4
-14 13 -10 21 3 9 -10 45 -29 81 -19 36 -35 72 -35 80 0 8 -4 14 -10 14 -5 0
-10 6 -10 13 0 21 -28 72 -50 92 -11 10 -20 23 -20 29 0 15 -162 176 -176 176
-7 0 -17 7 -24 15 -7 8 -16 13 -20 10 -4 -3 -13 2 -20 10 -7 8 -21 15 -31 15
-10 0 -20 4 -23 9 -7 11 -68 21 -171 27 -44 3 -84 10 -89 15 -13 12 -803 12
-811 0z"/>
<path d="M12688 8855 c-3 -4 -14 -8 -23 -9 -9 -1 -24 -16 -33 -32 -16 -27 -17
-156 -19 -1842 -3 -1707 -2 -1816 14 -1845 40 -72 15 -67 342 -67 l297 0 34
32 35 31 0 1838 0 1837 -24 26 c-16 17 -36 27 -55 27 -166 6 -563 8 -568 4z"/>
<path d="M14146 8853 c-4 -4 -22 -6 -41 -4 -39 3 -84 -24 -85 -51 0 -9 -4 -20
-10 -23 -7 -4 -10 -622 -10 -1822 l0 -1816 41 -39 40 -39 1282 4 c826 3 1307
8 1352 15 138 21 200 33 209 43 6 5 27 9 47 9 21 0 41 5 44 10 3 6 17 10 30
10 13 0 27 5 30 10 3 6 15 10 26 10 10 0 27 4 37 9 9 5 35 18 57 29 22 12 58
30 81 41 22 11 47 27 54 36 7 8 18 15 25 15 19 0 238 217 231 229 -3 5 5 18
19 29 14 11 25 27 25 35 0 8 6 20 14 26 20 17 76 129 76 152 0 10 5 19 10 19
6 0 10 9 10 19 0 11 5 23 10 26 6 3 10 17 10 30 0 13 5 27 10 30 6 3 10 23 10
44 0 20 5 42 10 47 6 6 11 31 12 55 1 24 5 49 10 55 13 18 27 134 39 339 16
281 6 1124 -16 1275 -9 63 -20 120 -24 125 -4 6 -8 30 -9 54 -1 24 -6 49 -12
55 -5 5 -10 20 -10 32 0 13 -4 26 -10 29 -5 3 -10 19 -10 35 0 16 -4 32 -10
35 -5 3 -10 17 -10 30 0 13 -4 27 -10 30 -5 3 -10 14 -10 25 0 10 -6 20 -14
23 -7 3 -13 17 -13 32 0 14 -9 36 -20 48 -11 12 -27 38 -36 57 -8 19 -29 48
-46 64 -17 17 -31 35 -31 41 0 13 -142 155 -156 155 -6 0 -23 14 -39 30 -29
30 -117 80 -142 80 -7 0 -13 5 -13 10 0 6 -8 10 -19 10 -10 0 -24 7 -31 15 -7
9 -15 13 -18 11 -2 -3 -14 1 -26 9 -11 8 -31 15 -43 15 -13 0 -31 4 -41 9 -57
29 -96 39 -192 48 -30 3 -60 9 -66 14 -7 5 -54 12 -104 14 -51 3 -95 7 -98 10
-8 8 -2418 6 -2426 -2z m2519 -766 c187 -47 298 -127 368 -264 24 -46 73 -198
69 -215 -1 -3 5 -41 13 -83 22 -113 22 -1001 0 -1136 -38 -231 -76 -321 -181
-426 -23 -22 -52 -44 -63 -48 -12 -3 -21 -11 -21 -16 0 -5 -7 -9 -15 -9 -8 0
-23 -4 -33 -9 -54 -27 -74 -33 -212 -58 -72 -14 -221 -17 -954 -20 l-868 -5
-24 23 -24 22 0 1112 c0 1000 2 1113 16 1133 l16 23 926 -4 c791 -4 936 -6
987 -20z"/>
<path d="M18605 8851 c-3 -5 -20 -7 -38 -5 -26 5 -37 0 -62 -26 l-30 -31 -3
-1815 c-2 -1416 1 -1820 10 -1837 7 -12 12 -26 13 -31 0 -5 14 -17 30 -27 27
-16 62 -18 315 -18 l285 0 35 31 35 32 0 1837 0 1837 -25 27 c-18 19 -33 25
-57 23 -17 -1 -35 1 -39 5 -11 11 -462 9 -469 -2z"/>
<path d="M20006 8853 c-4 -4 -23 -6 -42 -4 -41 3 -84 -21 -84 -47 0 -10 -6
-24 -12 -30 -10 -10 -13 -390 -13 -1832 l0 -1819 29 -30 30 -31 296 0 296 0
34 32 35 31 3 541 c2 366 6 544 14 553 8 10 219 13 1088 13 592 0 1079 3 1082
6 4 3 37 7 74 10 38 2 73 9 78 14 6 6 23 10 38 10 15 0 28 5 28 10 0 6 13 10
29 10 17 0 33 5 36 10 3 6 15 10 26 10 20 0 51 15 81 38 9 8 21 11 27 8 5 -3
18 5 29 19 11 14 26 25 34 25 20 0 178 162 178 183 0 9 5 17 10 17 6 0 10 8
10 18 0 11 9 27 20 37 24 22 50 71 50 96 0 10 5 21 10 24 6 3 10 19 10 36 0
16 5 29 10 29 6 0 10 13 10 28 0 15 5 33 11 39 6 6 12 31 13 55 1 24 5 49 9
55 36 59 36 999 -1 1057 -3 6 -7 31 -9 55 -1 24 -7 49 -13 55 -5 5 -10 20 -10
32 0 13 -4 26 -10 29 -5 3 -10 17 -10 30 0 14 -9 40 -20 60 -11 20 -20 42 -20
49 0 8 -7 16 -15 20 -8 3 -12 12 -9 21 4 8 -1 17 -10 21 -9 3 -16 14 -16 24 0
9 -9 25 -20 35 -11 10 -20 24 -20 32 0 7 -12 18 -26 24 -15 5 -24 13 -20 16
10 10 -96 113 -116 113 -10 0 -18 5 -18 10 0 6 -7 10 -15 10 -9 0 -26 9 -38
20 -27 26 -75 50 -98 50 -10 0 -21 5 -24 10 -3 6 -19 10 -35 10 -16 0 -32 5
-35 10 -3 6 -21 10 -39 10 -17 0 -37 5 -42 10 -6 6 -48 14 -95 18 -112 9
-2784 14 -2793 5z m2522 -748 c83 -16 154 -36 162 -45 3 -3 18 -12 34 -20 49
-25 97 -104 135 -221 15 -48 15 -540 0 -588 -48 -149 -110 -218 -249 -271 -46
-18 -1977 -28 -2010 -10 -20 11 -20 16 -20 561 l0 551 29 29 29 29 907 0 c767
0 918 -2 983 -15z"/>
<path d="M24226 8853 c-4 -4 -21 -6 -39 -5 -25 2 -40 -4 -58 -24 l-24 -26 0
-1837 0 -1838 35 -31 34 -32 296 0 296 0 30 31 29 30 3 1822 3 1822 -22 43
c-19 40 -24 43 -55 40 -18 -1 -36 1 -40 5 -9 9 -478 9 -488 0z"/>
<path d="M25506 8820 l-36 -40 0 -1203 c0 -984 3 -1233 15 -1371 8 -92 18
-173 22 -179 4 -7 8 -32 10 -56 1 -24 7 -49 13 -55 5 -5 10 -25 10 -42 0 -18
5 -36 10 -39 6 -3 10 -19 10 -35 0 -16 5 -32 10 -35 6 -3 10 -17 10 -30 0 -13
5 -27 10 -30 6 -3 10 -14 10 -25 0 -10 7 -21 16 -24 10 -4 13 -13 9 -25 -3
-12 3 -29 17 -47 13 -16 30 -42 38 -59 16 -35 239 -265 256 -265 6 0 17 -7 24
-15 7 -9 15 -13 18 -10 3 3 12 -1 20 -7 8 -7 21 -13 30 -15 9 -1 18 -7 20 -12
2 -6 12 -11 23 -11 10 0 19 -4 19 -10 0 -5 9 -10 19 -10 11 0 23 -4 26 -10 3
-5 16 -10 29 -10 12 0 26 -4 32 -10 5 -5 23 -11 39 -11 17 -1 44 -7 60 -14 28
-12 68 -18 270 -45 51 -6 471 -10 1171 -10 l1090 0 34 35 c19 19 30 35 25 35
-5 0 -4 5 3 12 16 16 17 574 2 583 -6 4 -10 12 -9 18 4 33 -4 47 -33 61 -28
14 -146 16 -1079 16 -1019 0 -1158 4 -1211 31 -10 5 -31 9 -46 9 -34 0 -82 22
-107 50 -10 11 -23 20 -30 20 -14 0 -55 42 -55 56 0 6 -11 21 -25 34 -14 13
-25 32 -25 42 0 10 -4 18 -10 18 -5 0 -10 13 -10 29 0 17 -4 33 -10 36 -5 3
-10 25 -10 49 0 23 -6 48 -12 54 -10 10 -14 285 -18 1282 l-5 1268 -25 27
c-20 22 -31 26 -57 22 -18 -3 -35 -1 -38 4 -4 5 -117 9 -269 9 l-264 0 -36
-40z"/>
<path d="M30478 8855 c-3 -3 -51 -7 -108 -10 -56 -2 -108 -9 -114 -14 -6 -5
-31 -11 -56 -14 -66 -8 -112 -17 -135 -27 -11 -4 -39 -13 -63 -21 -23 -7 -47
-18 -53 -26 -6 -7 -15 -10 -21 -7 -5 3 -20 -1 -33 -10 -13 -9 -30 -16 -37 -16
-8 0 -20 -9 -28 -20 -8 -11 -22 -20 -31 -20 -9 0 -24 -9 -34 -20 -10 -11 -23
-20 -29 -20 -14 0 -186 -171 -186 -186 0 -6 -9 -19 -20 -29 -11 -10 -20 -26
-20 -37 0 -10 -4 -18 -10 -18 -5 0 -10 -9 -10 -20 0 -11 -7 -23 -16 -27 -8 -3
-13 -12 -10 -19 3 -7 1 -16 -4 -19 -15 -9 -60 -108 -60 -131 0 -13 -4 -26 -10
-29 -5 -3 -10 -21 -10 -39 0 -17 -5 -37 -10 -42 -6 -6 -12 -31 -13 -55 -2 -24
-6 -49 -9 -54 -3 -6 -14 -73 -23 -150 -14 -122 -16 -234 -12 -870 4 -673 11
-862 33 -897 4 -7 9 -32 10 -56 1 -24 7 -49 13 -55 6 -6 11 -28 11 -49 0 -21
5 -38 10 -38 6 0 10 -13 10 -29 0 -17 5 -33 10 -36 6 -3 10 -15 10 -26 0 -10
4 -27 9 -37 5 -9 17 -33 26 -52 24 -52 40 -78 58 -98 10 -10 17 -23 17 -28 0
-6 16 -25 35 -44 19 -19 35 -38 35 -44 0 -14 81 -96 95 -96 6 0 24 -13 40 -30
16 -16 34 -30 41 -30 6 0 18 -7 25 -16 7 -9 22 -20 34 -25 11 -5 27 -13 35
-17 43 -24 62 -32 79 -32 11 0 23 -4 26 -10 3 -5 14 -10 24 -10 10 0 32 -7 47
-15 16 -8 37 -12 47 -9 10 3 25 0 33 -7 17 -14 67 -23 239 -44 99 -12 325 -15
1277 -15 761 0 1159 3 1163 10 3 6 14 10 24 10 10 0 24 15 35 40 15 35 17 71
14 329 l-3 291 -30 29 -30 30 -170 1 c-93 1 -173 1 -177 1 -8 -2 -303 -2 -313
-1 -22 2 -868 0 -870 -2 -2 -2 -59 -1 -126 2 -68 3 -197 3 -287 0 -90 -3 -166
-2 -169 3 -2 4 -50 7 -106 8 -56 0 -124 4 -152 9 -27 5 -66 12 -85 15 -47 9
-132 50 -155 75 -10 11 -24 20 -32 20 -7 0 -13 6 -13 13 0 7 -16 28 -35 47
-20 19 -35 44 -35 56 0 13 -4 26 -10 29 -5 3 -10 17 -10 30 0 13 -4 26 -9 29
-5 3 -12 30 -16 61 -3 30 -10 57 -14 59 -4 3 -7 92 -7 198 l1 193 1382 5 1381
5 26 24 c14 13 23 27 21 32 -3 4 -1 10 5 14 15 9 13 466 -2 502 -6 15 -23 40
-37 56 l-25 27 -1379 0 -1379 0 5 178 c3 97 11 197 17 222 26 103 33 127 53
170 22 47 103 140 122 140 7 0 22 11 35 25 13 14 34 25 46 25 13 0 26 5 29 10
3 6 28 10 55 10 27 0 52 5 55 10 4 7 398 10 1150 10 752 0 1146 3 1150 10 3 6
25 10 48 10 36 1 46 6 70 37 l27 36 0 288 0 288 -32 37 c-28 31 -36 35 -65 31
-18 -3 -35 -1 -38 4 -6 9 -2257 14 -2267 4z"/>
<path d="M13035 4511 c-3 -6 -32 -11 -64 -11 -54 0 -59 -2 -98 -42 -28 -29
-45 -58 -53 -88 -7 -31 -10 -295 -8 -860 l3 -815 30 -3 c17 -2 34 -8 40 -13 5
-5 55 -9 110 -9 86 0 104 3 118 18 16 17 17 82 17 735 0 710 0 717 20 717 11
0 20 5 20 10 0 6 14 10 30 10 28 0 30 -3 30 -35 0 -19 9 -50 20 -70 11 -20 20
-44 20 -55 0 -10 5 -22 10 -25 6 -3 10 -15 10 -26 0 -11 7 -22 15 -25 8 -4 15
-17 15 -30 0 -13 9 -39 20 -59 11 -20 20 -44 20 -55 0 -10 5 -22 10 -25 6 -3
10 -14 10 -24 0 -10 7 -24 15 -31 8 -7 12 -16 9 -21 -2 -5 7 -29 21 -54 14
-25 25 -52 25 -60 0 -9 5 -24 10 -35 6 -11 15 -29 20 -40 6 -11 10 -29 10 -39
0 -11 5 -23 10 -26 6 -3 10 -14 10 -25 0 -10 7 -20 15 -24 8 -3 15 -17 15 -30
0 -14 9 -41 20 -61 11 -20 20 -44 20 -55 0 -10 5 -22 10 -25 6 -3 10 -15 10
-26 0 -10 5 -19 10 -19 6 0 10 -13 10 -29 0 -17 4 -32 9 -36 13 -8 41 -65 41
-84 0 -9 9 -27 20 -41 11 -14 20 -35 20 -47 0 -12 5 -25 10 -28 6 -3 10 -15
10 -25 0 -10 11 -32 25 -48 14 -17 25 -35 25 -41 0 -18 55 -71 74 -71 9 0 16
-4 16 -9 0 -18 177 -38 193 -22 14 14 60 14 74 0 8 -8 13 -8 17 0 4 6 20 11
35 11 16 0 37 10 51 25 12 13 26 22 30 20 10 -6 32 20 23 28 -3 4 6 16 20 28
15 11 27 29 27 40 0 10 5 19 10 19 6 0 10 6 10 13 0 7 16 44 35 83 19 38 35
77 35 87 0 9 5 17 10 17 6 0 10 9 10 19 0 11 5 23 10 26 6 3 10 15 10 25 0 11
9 35 20 55 11 20 20 46 20 58 0 13 6 29 13 36 6 6 12 15 13 19 0 4 6 21 13 37
8 17 18 41 23 55 6 14 14 33 19 42 5 10 9 26 9 37 0 10 6 24 14 31 8 6 12 18
9 26 -3 8 1 22 8 32 26 32 39 62 39 87 0 14 5 25 10 25 6 0 10 9 10 19 0 11 5
23 10 26 6 3 10 19 10 36 0 16 5 29 10 29 6 0 10 7 10 15 0 9 7 27 16 40 9 13
13 29 10 34 -4 5 -2 12 3 16 16 9 41 66 41 92 0 12 5 23 10 23 6 0 10 9 10 19
0 11 5 23 10 26 6 3 10 17 10 29 0 13 7 29 15 36 9 8 13 21 9 36 -5 21 -3 24
21 24 14 0 35 -5 46 -10 19 -10 19 -29 19 -716 0 -467 3 -712 10 -725 6 -10
19 -19 30 -19 10 0 22 -4 25 -10 8 -13 178 -13 191 -1 5 5 23 11 39 13 l30 3
3 829 c1 547 -1 833 -8 840 -5 5 -10 19 -10 31 0 11 -19 39 -41 63 -39 40 -44
42 -100 42 -32 0 -61 5 -64 10 -4 6 -58 10 -130 10 -72 0 -126 -4 -130 -10 -3
-5 -19 -10 -34 -10 -15 0 -36 -9 -46 -20 -10 -11 -23 -20 -30 -20 -21 0 -75
-75 -75 -105 0 -8 -4 -24 -10 -35 -5 -11 -14 -29 -20 -40 -5 -11 -10 -28 -10
-39 0 -10 -7 -24 -15 -31 -9 -7 -13 -15 -11 -18 3 -2 -1 -14 -9 -26 -8 -11
-15 -31 -15 -43 0 -13 -4 -23 -10 -23 -5 0 -10 -9 -10 -19 0 -11 -4 -23 -10
-26 -5 -3 -10 -17 -10 -30 0 -13 -4 -27 -10 -30 -5 -3 -10 -19 -10 -36 0 -16
-4 -29 -10 -29 -5 0 -10 -6 -10 -14 0 -8 -6 -27 -14 -43 -8 -15 -20 -41 -26
-58 -7 -16 -16 -38 -21 -47 -5 -10 -9 -27 -9 -37 0 -11 -4 -23 -10 -26 -5 -3
-10 -17 -10 -29 0 -13 -7 -29 -15 -36 -9 -7 -13 -15 -11 -18 3 -2 -1 -14 -9
-26 -8 -11 -15 -30 -15 -43 0 -12 -4 -25 -10 -28 -5 -3 -10 -15 -10 -25 0 -11
-9 -35 -20 -55 -11 -20 -20 -43 -20 -53 0 -14 -17 -55 -61 -144 -5 -10 -9 -29
-9 -43 0 -14 -4 -25 -10 -25 -5 0 -10 -9 -10 -19 0 -11 -4 -23 -10 -26 -5 -3
-10 -14 -10 -24 0 -10 -7 -32 -16 -49 -14 -30 -19 -32 -70 -32 -50 0 -54 2
-54 24 0 13 -7 29 -15 36 -9 7 -14 19 -11 25 2 7 -6 34 -20 61 -13 26 -24 55
-24 65 0 10 -4 21 -10 24 -5 3 -10 15 -10 26 0 10 -4 19 -10 19 -5 0 -10 13
-10 29 0 16 -7 34 -15 41 -8 7 -13 15 -10 19 2 4 -3 20 -11 35 -7 16 -14 35
-14 42 0 8 -4 14 -10 14 -5 0 -10 11 -10 25 0 13 -9 40 -20 60 -11 20 -20 44
-20 55 0 10 -4 22 -10 25 -5 3 -10 14 -10 23 0 9 -11 39 -25 66 -14 27 -25 57
-25 67 0 10 -4 21 -10 24 -5 3 -10 15 -10 26 0 10 -4 19 -10 19 -5 0 -10 13
-10 29 0 16 -7 34 -15 41 -8 7 -12 16 -9 22 3 5 -1 20 -10 33 -9 13 -16 31
-16 40 0 8 -4 15 -10 15 -5 0 -10 11 -10 25 0 13 -9 40 -20 60 -11 20 -20 47
-20 60 0 14 -4 25 -10 25 -5 0 -10 10 -10 23 0 12 -7 32 -15 43 -8 12 -12 24
-9 26 2 3 -2 11 -11 18 -8 7 -15 21 -15 31 0 11 -4 19 -10 19 -5 0 -10 7 -10
17 0 29 -77 90 -123 98 -78 13 -295 17 -302 6z"/>
<path d="M16155 4510 c-3 -5 -34 -10 -67 -10 -58 0 -110 -11 -150 -31 -10 -5
-24 -9 -31 -9 -46 0 -232 -156 -221 -185 3 -7 -2 -15 -11 -19 -10 -4 -15 -12
-11 -21 3 -9 -1 -18 -9 -21 -8 -4 -15 -14 -15 -24 0 -11 -4 -22 -10 -25 -5 -3
-10 -24 -10 -45 0 -21 -4 -42 -10 -45 -5 -3 -10 -37 -10 -75 0 -38 -4 -72 -10
-75 -6 -4 -10 -128 -10 -340 0 -212 4 -336 10 -340 6 -3 10 -37 10 -75 0 -38
5 -72 10 -75 6 -3 10 -19 10 -35 0 -16 5 -32 10 -35 6 -3 10 -14 10 -24 0 -23
24 -71 50 -98 11 -12 20 -28 20 -35 0 -18 51 -68 70 -68 8 0 22 -9 30 -20 8
-11 22 -20 31 -20 9 0 22 -7 29 -15 7 -9 15 -13 18 -10 3 3 12 -1 21 -9 46
-40 173 -49 681 -48 468 0 596 5 615 23 5 5 20 9 35 9 43 0 141 56 202 117 32
31 58 62 58 69 0 6 9 19 20 29 11 10 20 31 20 47 0 15 5 28 10 28 6 0 10 13
10 28 0 15 4 32 9 38 22 21 33 158 38 454 2 180 0 356 -6 410 -5 52 -12 115
-15 139 -3 24 -10 49 -15 54 -6 6 -11 24 -11 39 0 15 -4 28 -10 28 -5 0 -10 6
-10 13 0 48 -98 177 -161 212 -67 38 -133 65 -157 65 -16 0 -32 4 -37 9 -17
16 -150 23 -592 27 -287 3 -434 1 -438 -6z m953 -374 c17 -5 32 -12 32 -17 0
-5 6 -9 13 -9 23 0 77 -75 82 -114 1 -12 8 -41 14 -66 14 -57 14 -608 0 -670
-6 -25 -10 -55 -10 -66 0 -12 -6 -27 -14 -34 -8 -7 -15 -18 -15 -25 0 -21 -63
-70 -110 -85 -67 -22 -932 -22 -1004 0 -62 19 -117 73 -133 131 -44 153 -45
679 -1 824 15 52 84 125 118 125 14 0 32 5 40 10 18 12 938 7 988 -4z"/>
<path d="M17995 4511 c-6 -5 -23 -11 -40 -13 -28 -3 -30 -7 -37 -53 -11 -86
-9 -1714 2 -1736 7 -12 21 -19 38 -19 16 0 33 -5 38 -10 12 -12 1413 -7 1482
5 23 4 45 11 48 16 3 5 13 9 23 9 10 0 24 7 31 15 7 9 15 13 18 10 8 -7 112
96 112 111 0 6 7 17 16 25 9 7 13 21 10 33 -3 12 2 28 12 39 15 17 17 46 17
241 0 204 -2 224 -21 266 -12 25 -29 51 -38 59 -9 7 -16 19 -16 25 0 7 -16 27
-35 46 -19 19 -35 41 -35 50 0 9 18 34 40 55 44 43 84 111 74 126 -3 5 0 17 8
26 9 11 14 59 17 157 3 149 -10 259 -37 311 -26 47 -123 145 -162 161 -19 9
-43 20 -52 25 -10 5 -38 9 -64 9 -25 0 -54 5 -64 10 -13 7 -21 7 -25 0 -8 -13
-52 -13 -60 0 -8 13 -1287 14 -1300 1z m1355 -378 c62 -42 70 -64 70 -178 0
-99 -10 -135 -46 -166 -45 -38 -83 -40 -604 -37 l-505 3 -3 189 c-2 145 1 191
10 198 7 4 247 8 533 8 475 0 523 -2 545 -17z m-36 -685 c88 -25 106 -61 106
-211 l0 -114 -34 -39 -34 -39 -503 -3 c-277 -2 -523 0 -546 3 l-43 6 0 198 c0
109 3 201 7 204 12 13 1002 8 1047 -5z"/>
<path d="M20120 4510 c-8 -5 -23 -11 -34 -14 -13 -5 -17 -13 -13 -31 2 -14 0
-28 -4 -31 -5 -3 -9 -389 -9 -860 l0 -855 26 -24 c25 -23 34 -25 140 -25 64 0
115 4 119 10 3 6 13 10 22 10 43 0 42 -7 43 887 0 557 -3 854 -10 858 -5 3
-10 19 -10 36 0 22 -5 29 -19 29 -11 0 -23 5 -26 10 -8 12 -204 12 -225 0z"/>
<path d="M20805 4511 c-6 -5 -23 -11 -40 -13 l-30 -3 -3 -625 c-3 -632 2 -749
34 -814 8 -16 14 -37 14 -46 0 -35 52 -117 117 -182 37 -37 73 -68 79 -68 6 0
17 -7 24 -15 7 -9 15 -13 18 -10 3 3 11 0 18 -6 16 -13 65 -26 154 -41 89 -15
1110 -22 1124 -8 5 5 18 10 27 10 35 0 41 25 41 171 -1 91 -5 146 -13 155 -9
11 -103 14 -533 18 -539 4 -609 7 -638 34 -10 8 -18 11 -18 7 0 -5 -13 4 -30
20 -16 16 -30 34 -30 40 0 6 -5 16 -12 23 -6 6 -13 26 -15 43 -2 18 -8 37 -13
44 -6 7 -11 244 -12 631 l-3 619 -25 3 c-14 2 -29 8 -34 13 -13 12 -189 12
-201 0z"/>
<path d="M22665 4510 c-3 -5 -14 -10 -24 -10 -14 0 -21 -11 -26 -37 -5 -21
-10 -419 -12 -885 l-3 -846 26 -31 26 -31 113 0 c65 0 116 4 120 10 3 6 14 10
24 10 10 0 24 6 30 14 8 10 11 243 11 866 0 469 -2 855 -5 858 -3 3 -5 19 -5
36 0 28 -5 33 -40 44 -47 14 -226 16 -235 2z"/>
<path d="M23223 4507 c-38 -13 -43 -33 -50 -195 -7 -178 -23 -172 438 -172
l349 0 0 -707 c1 -541 4 -712 13 -723 7 -8 28 -21 48 -27 42 -15 215 -17 224
-3 3 6 14 10 24 10 10 0 24 6 30 14 8 10 12 209 14 722 l2 709 350 2 c193 2
359 7 370 12 11 5 27 11 36 14 9 3 19 20 23 37 8 42 8 184 0 244 -11 81 46 76
-958 75 -580 -1 -892 -5 -913 -12z"/>
<path d="M25228 4506 c-24 -18 -23 -48 2 -66 11 -8 20 -22 20 -30 0 -9 11 -27
25 -40 14 -13 25 -29 25 -35 0 -7 9 -20 20 -30 11 -10 20 -23 20 -30 0 -7 9
-20 20 -30 11 -10 20 -23 20 -30 0 -6 11 -22 25 -35 14 -13 25 -31 25 -40 0
-8 9 -22 20 -30 11 -8 20 -22 20 -30 0 -9 11 -27 25 -40 13 -12 22 -26 20 -30
-2 -4 7 -18 20 -30 14 -13 25 -29 25 -35 0 -7 9 -20 20 -30 11 -10 20 -23 20
-30 0 -7 9 -20 20 -30 12 -11 28 -34 37 -52 8 -18 19 -33 24 -33 5 0 9 -9 9
-19 0 -10 16 -33 35 -50 19 -17 35 -37 35 -44 0 -8 9 -22 20 -32 11 -10 20
-23 20 -30 0 -6 11 -22 25 -35 13 -12 22 -26 20 -30 -2 -4 7 -18 20 -30 14
-13 25 -31 25 -40 0 -8 9 -22 20 -30 11 -8 20 -22 20 -31 0 -10 12 -27 27 -38
14 -12 23 -24 19 -28 -3 -4 6 -20 21 -35 l28 -29 5 -280 5 -280 25 -19 c21
-17 42 -20 137 -20 64 0 114 4 118 10 3 6 13 10 22 10 39 0 42 25 43 301 0
224 2 269 15 279 8 7 13 16 10 20 -2 4 7 18 20 30 14 13 25 29 25 35 0 7 9 20
20 30 11 10 20 23 20 30 0 6 11 22 25 35 14 13 25 31 25 39 0 9 14 27 30 40
17 13 30 31 30 40 0 10 11 28 25 41 14 13 25 29 25 35 0 7 9 20 20 30 11 10
20 23 20 30 0 6 11 22 25 35 13 12 22 26 20 30 -3 4 5 16 16 26 11 10 27 33
36 51 8 18 19 33 24 33 5 0 9 7 9 16 0 9 11 27 25 40 14 13 25 29 25 37 0 7
14 26 30 42 17 16 30 34 30 40 0 6 11 22 25 35 14 13 25 29 25 36 0 6 7 17 15
24 9 7 23 28 31 46 9 19 20 34 25 34 5 0 9 9 9 19 0 11 11 28 25 39 14 11 25
26 25 34 0 8 9 23 20 33 11 10 20 23 20 30 0 6 11 22 25 35 13 12 22 26 20 30
-3 4 2 13 10 20 21 17 19 25 -10 38 -32 15 -261 16 -270 2 -3 -5 -19 -10 -34
-10 -29 0 -61 -27 -61 -51 0 -8 -9 -21 -20 -29 -11 -8 -20 -22 -20 -30 0 -9
-11 -27 -25 -40 -14 -13 -25 -29 -25 -35 0 -7 -9 -20 -20 -30 -11 -10 -20 -23
-20 -30 0 -6 -11 -22 -25 -35 -13 -12 -22 -27 -19 -32 3 -5 -6 -18 -20 -29
-14 -11 -26 -28 -26 -38 0 -9 -9 -23 -20 -31 -11 -8 -20 -22 -20 -30 0 -9 -11
-27 -25 -40 -13 -12 -22 -26 -20 -30 3 -4 -2 -13 -10 -20 -8 -7 -15 -18 -15
-25 0 -6 -9 -20 -20 -30 -11 -10 -20 -23 -20 -30 0 -7 -9 -20 -20 -30 -12 -11
-28 -34 -37 -52 -8 -18 -19 -33 -24 -33 -5 0 -9 -9 -9 -20 0 -11 -4 -20 -9
-20 -5 0 -16 -15 -24 -33 -9 -18 -25 -41 -37 -52 -11 -10 -20 -24 -20 -30 0
-7 -7 -19 -16 -26 -9 -7 -20 -24 -25 -37 -7 -17 -15 -22 -32 -20 -12 2 -21 9
-19 16 1 7 -9 23 -23 36 -14 13 -25 30 -25 38 0 8 -9 23 -20 33 -11 10 -20 23
-20 30 0 6 -11 22 -25 35 -14 13 -25 29 -25 35 0 7 -9 20 -20 30 -11 10 -20
23 -20 30 0 7 -9 20 -20 30 -11 10 -20 24 -20 32 0 8 -11 24 -25 37 -14 13
-25 31 -25 40 0 9 -4 16 -8 16 -5 0 -15 12 -22 28 -8 15 -25 39 -39 55 -14 15
-21 27 -16 27 5 0 -2 12 -16 28 -28 32 -49 67 -49 83 0 6 -11 20 -25 30 -13
11 -22 26 -19 33 3 8 -6 23 -20 34 -14 11 -26 26 -26 34 0 8 -9 23 -20 33 -11
10 -20 23 -20 30 0 7 -9 20 -20 30 -12 11 -28 33 -36 51 -19 39 -42 45 -214
50 -95 3 -129 1 -142 -10z"/>
</g>
</svg>
