<?xml version="1.0" standalone="no"?>
<!DOCTYPE svg PUBLIC "-//W3C//DTD SVG 20010904//EN"
 "http://www.w3.org/TR/2001/REC-SVG-20010904/DTD/svg10.dtd">
<svg version="1.0" xmlns="http://www.w3.org/2000/svg"
 width="256.000000pt" height="256.000000pt" viewBox="0 0 256.000000 256.000000"
 preserveAspectRatio="xMidYMid meet">

<g transform="translate(0.000000,256.000000) scale(0.100000,-0.100000)"
fill="#000000" stroke="none">
<path d="M105 2522 c-43 -26 -52 -40 -72 -108 -16 -55 -18 -145 -21 -1200 -2
-752 1 -1150 7 -1167 l11 -27 129 0 c108 0 130 3 135 16 3 9 6 453 6 987 0
535 4 978 9 985 10 17 41 12 52 -8 5 -8 106 -404 224 -879 119 -475 227 -891
241 -925 33 -81 68 -133 107 -156 26 -16 50 -20 130 -20 53 0 97 3 97 6 0 14
-553 2304 -567 2349 -25 80 -52 124 -86 145 -28 18 -51 20 -202 20 -147 0
-174 -3 -200 -18z"/>
<path d="M665 2528 c3 -7 131 -521 286 -1143 154 -621 292 -1156 305 -1190 33
-80 68 -132 107 -155 26 -16 50 -20 130 -20 133 0 167 20 220 125 37 76 41 92
266 990 116 462 215 850 221 863 11 25 45 30 54 6 3 -9 6 -451 6 -984 0 -533
3 -975 6 -984 5 -13 27 -16 135 -16 118 0 129 2 139 20 7 14 10 367 8 1173 -4
1274 -1 1225 -67 1291 l-31 31 -178 3 c-162 2 -180 1 -209 -17 -68 -42 -56 2
-474 -1741 -34 -140 -68 -262 -75 -270 -12 -13 -16 -13 -28 0 -8 8 -55 184
-105 390 -260 1086 -351 1459 -366 1499 -22 64 -53 110 -85 126 -38 20 -272
22 -265 3z"/>
</g>
</svg>
