<?xml version="1.0" encoding="UTF-8"?>
<svg xmlns="http://www.w3.org/2000/svg" xmlns:xlink="http://www.w3.org/1999/xlink" width="24px" height="24px" viewBox="0 0 24 24" version="1.1">
<g id="surface1">
<path style=" stroke:none;fill-rule:nonzero;fill:rgb(0%,0%,0%);fill-opacity:1;" d="M 5.4375 0.710938 C 2.101562 2.289062 0.75 4.800781 0.75 9.5625 L 0.75 12.75 L 3 12.75 L 3 9.9375 C 3 8.136719 2.851562 7.125 2.585938 7.125 C 1.949219 7.125 2.550781 5.25 3.636719 3.789062 C 4.835938 2.210938 6.789062 1.386719 8.886719 1.574219 C 10.351562 1.6875 10.5 1.613281 10.425781 0.9375 C 10.273438 -0.113281 7.460938 -0.261719 5.4375 0.710938 Z M 5.4375 0.710938 "/>
<path style=" stroke:none;fill-rule:nonzero;fill:rgb(0%,0%,0%);fill-opacity:1;" d="M 12 4.3125 L 12 7.125 L 16.125 7.125 L 16.125 9.898438 L 17.550781 8.511719 C 18.863281 7.238281 19.164062 7.125 21.113281 7.125 L 23.25 7.125 L 23.25 1.5 L 12 1.5 Z M 15.375 4.125 C 15.375 4.539062 15.113281 4.875 14.8125 4.875 C 14.511719 4.875 14.25 4.539062 14.25 4.125 C 14.25 3.710938 14.511719 3.375 14.8125 3.375 C 15.113281 3.375 15.375 3.710938 15.375 4.125 Z M 18.300781 4.238281 C 18.375 4.6875 18.1875 4.875 17.664062 4.875 C 17.101562 4.875 16.875 4.648438 16.875 4.085938 C 16.875 3.148438 18.113281 3.261719 18.300781 4.238281 Z M 21 4.125 C 21 4.539062 20.738281 4.875 20.4375 4.875 C 20.136719 4.875 19.875 4.539062 19.875 4.125 C 19.875 3.710938 20.136719 3.375 20.4375 3.375 C 20.738281 3.375 21 3.710938 21 4.125 Z M 21 4.125 "/>
<path style=" stroke:none;fill-rule:nonzero;fill:rgb(0%,0%,0%);fill-opacity:1;" d="M 5.925781 3.710938 C 4.949219 4.5 4.011719 6.488281 4.386719 6.898438 C 4.539062 7.011719 5.398438 7.125 6.375 7.125 C 7.835938 7.125 8.289062 6.9375 9.335938 5.851562 C 11.023438 4.085938 10.800781 3.226562 8.585938 3.074219 C 7.351562 3 6.636719 3.148438 5.925781 3.710938 Z M 5.925781 3.710938 "/>
<path style=" stroke:none;fill-rule:nonzero;fill:rgb(0%,0%,0%);fill-opacity:1;" d="M 9.414062 7.648438 C 8.625 8.476562 8.175781 8.625 6.300781 8.625 L 4.125 8.625 L 4.125 11.25 L 6 11.25 C 7.613281 11.25 7.875 11.363281 7.875 12 C 7.875 12.636719 7.613281 12.75 6.335938 12.75 C 4.726562 12.75 4.648438 13.273438 6.1875 13.875 C 6.898438 14.136719 7.085938 14.550781 7.199219 15.789062 C 7.425781 18.75 9.75 18.675781 9.75 15.710938 C 9.75 14.511719 9.898438 14.175781 10.648438 13.875 C 11.960938 13.386719 12.75 12.039062 12.75 10.238281 C 12.75 8.8125 12.675781 8.664062 11.738281 8.550781 C 11.023438 8.476562 10.648438 8.175781 10.5 7.574219 L 10.3125 6.675781 Z M 9.414062 7.648438 "/>
<path style=" stroke:none;fill-rule:nonzero;fill:rgb(0%,0%,0%);fill-opacity:1;" d="M 2.511719 15.976562 C 1.125 16.726562 0.75 17.851562 0.75 21.226562 L 0.75 24 L 16.125 24 L 16.125 20.960938 C 16.125 19.3125 15.9375 17.625 15.75 17.210938 C 15.261719 16.3125 13.460938 15.375 12.1875 15.375 C 11.398438 15.375 11.25 15.5625 11.25 16.425781 C 11.25 17.101562 10.835938 17.851562 10.125 18.5625 C 9.523438 19.164062 9 19.949219 9 20.324219 C 9 20.699219 8.738281 21 8.4375 21 C 8.136719 21 7.875 20.699219 7.875 20.324219 C 7.875 19.949219 7.386719 19.164062 6.75 18.5625 C 6.039062 17.851562 5.625 17.101562 5.625 16.425781 C 5.625 15.523438 5.476562 15.375 4.613281 15.375 C 4.011719 15.414062 3.074219 15.675781 2.511719 15.976562 Z M 2.511719 15.976562 "/>
</g>
</svg>
