<?xml version="1.0" standalone="no"?>
<!DOCTYPE svg PUBLIC "-//W3C//DTD SVG 20010904//EN"
 "http://www.w3.org/TR/2001/REC-SVG-20010904/DTD/svg10.dtd">
<svg version="1.0" xmlns="http://www.w3.org/2000/svg"
 width="2516.000000pt" height="1682.000000pt" viewBox="0 0 2516.000000 1682.000000"
 preserveAspectRatio="xMidYMid meet">

<g transform="translate(0.000000,1682.000000) scale(0.100000,-0.100000)"
fill="#000000" stroke="none">
<path d="M1620 16713 c-371 -29 -666 -115 -875 -256 -163 -110 -266 -230 -360
-422 -157 -321 -243 -742 -275 -1350 -14 -265 -14 -14126 0 -14213 23 -140 80
-240 171 -301 112 -75 63 -72 1304 -69 l1100 3 57 23 c80 32 158 106 192 181
60 134 56 -372 56 6467 0 4088 3 6289 10 6323 14 74 37 118 75 141 28 18 49
20 175 20 80 0 160 -5 182 -12 55 -16 121 -78 146 -135 11 -26 932 -2480 2047
-5453 1115 -2973 2055 -5475 2090 -5560 276 -675 550 -1133 875 -1460 238
-240 468 -373 785 -455 298 -76 428 -85 1324 -85 703 0 743 1 738 18 -3 12
-4386 12201 -5384 14972 -66 183 -173 439 -247 591 -135 278 -266 469 -432
630 -240 231 -461 327 -896 386 -109 15 -274 17 -1468 18 -740 1 -1365 0
-1390 -2z"/>
<path d="M6505 16703 c3 -10 1205 -3242 2670 -7183 1465 -3941 2688 -7228
2718 -7305 306 -783 638 -1329 1012 -1665 212 -190 490 -327 790 -389 262 -54
304 -56 995 -56 701 0 762 4 1017 61 469 105 798 333 1128 785 188 258 392
632 564 1039 45 107 1001 2643 2123 5635 1122 2992 2049 5462 2060 5488 25 57
91 119 146 135 22 7 102 12 182 12 126 0 147 -2 175 -20 38 -23 61 -67 75
-141 7 -34 10 -2235 10 -6323 0 -6839 -4 -6333 56 -6467 34 -75 112 -149 192
-181 l57 -23 1100 -3 c1241 -3 1192 -6 1304 69 91 61 148 161 171 301 14 87
14 13948 0 14213 -47 889 -223 1441 -544 1706 -187 154 -421 248 -748 301
-130 22 -158 22 -1403 26 -1286 3 -1464 0 -1690 -34 -409 -60 -676 -206 -924
-504 -189 -227 -391 -630 -580 -1157 -390 -1092 -4149 -11512 -4166 -11549
-32 -71 -86 -128 -147 -154 -42 -18 -66 -21 -133 -18 -70 3 -89 7 -131 33 -30
19 -63 52 -86 85 -29 44 -457 1221 -2108 5805 -1139 3163 -2096 5818 -2126
5900 -372 1004 -733 1418 -1343 1535 -271 53 -276 53 -1385 57 -999 4 -1038 3
-1031 -14z"/>
</g>
</svg>
