<?xml version="1.0" encoding="UTF-8"?>
<svg xmlns="http://www.w3.org/2000/svg" xmlns:xlink="http://www.w3.org/1999/xlink" width="103px" height="69px" viewBox="0 0 103 69" version="1.1">
<g id="surface1">
<path style=" stroke:none;fill-rule:nonzero;fill:rgb(0%,0%,0%);fill-opacity:1;" d="M 6.632812 0.4375 C 5.113281 0.558594 3.90625 0.910156 3.050781 1.488281 C 2.382812 1.941406 1.960938 2.433594 1.574219 3.21875 C 0.933594 4.535156 0.582031 6.261719 0.449219 8.757812 C 0.394531 9.84375 0.394531 66.691406 0.449219 67.046875 C 0.542969 67.621094 0.777344 68.03125 1.148438 68.28125 C 1.609375 68.589844 1.410156 68.578125 6.488281 68.566406 L 10.992188 68.554688 L 11.226562 68.457031 C 11.550781 68.328125 11.871094 68.023438 12.011719 67.714844 C 12.257812 67.167969 12.242188 69.242188 12.242188 41.191406 C 12.242188 24.425781 12.253906 15.398438 12.28125 15.261719 C 12.339844 14.957031 12.433594 14.777344 12.589844 14.683594 C 12.703125 14.609375 12.789062 14.601562 13.304688 14.601562 C 13.632812 14.601562 13.960938 14.621094 14.050781 14.648438 C 14.273438 14.714844 14.546875 14.96875 14.648438 15.203125 C 14.691406 15.308594 18.464844 25.375 23.027344 37.566406 C 27.59375 49.761719 31.441406 60.023438 31.582031 60.371094 C 32.714844 63.140625 33.835938 65.019531 35.164062 66.359375 C 36.140625 67.34375 37.082031 67.886719 38.378906 68.226562 C 39.597656 68.535156 40.132812 68.574219 43.800781 68.574219 C 46.675781 68.574219 46.839844 68.570312 46.820312 68.5 C 46.808594 68.449219 28.867188 18.460938 24.78125 7.09375 C 24.507812 6.34375 24.070312 5.292969 23.769531 4.671875 C 23.214844 3.53125 22.679688 2.746094 22 2.085938 C 21.015625 1.140625 20.113281 0.746094 18.332031 0.503906 C 17.886719 0.441406 17.210938 0.433594 12.324219 0.429688 C 9.292969 0.425781 6.734375 0.429688 6.632812 0.4375 Z M 6.632812 0.4375 "/>
<path style=" stroke:none;fill-rule:nonzero;fill:rgb(0%,0%,0%);fill-opacity:1;" d="M 26.628906 0.480469 C 26.640625 0.519531 31.5625 13.777344 37.5625 29.9375 C 43.558594 46.101562 48.566406 59.582031 48.6875 59.898438 C 49.941406 63.109375 51.300781 65.351562 52.832031 66.726562 C 53.699219 67.507812 54.835938 68.070312 56.066406 68.324219 C 57.136719 68.542969 57.308594 68.554688 60.136719 68.554688 C 63.007812 68.554688 63.257812 68.535156 64.300781 68.304688 C 66.222656 67.871094 67.566406 66.9375 68.917969 65.082031 C 69.6875 64.023438 70.523438 62.492188 71.226562 60.820312 C 71.414062 60.382812 75.324219 49.980469 79.917969 37.710938 C 84.511719 25.441406 88.308594 15.308594 88.351562 15.203125 C 88.453125 14.96875 88.726562 14.714844 88.949219 14.648438 C 89.039062 14.621094 89.367188 14.601562 89.695312 14.601562 C 90.210938 14.601562 90.296875 14.609375 90.410156 14.683594 C 90.566406 14.777344 90.660156 14.957031 90.71875 15.261719 C 90.746094 15.398438 90.757812 24.425781 90.757812 41.191406 C 90.757812 69.242188 90.742188 67.167969 90.988281 67.714844 C 91.128906 68.023438 91.449219 68.328125 91.773438 68.457031 L 92.007812 68.554688 L 96.511719 68.566406 C 101.589844 68.578125 101.390625 68.589844 101.851562 68.28125 C 102.222656 68.03125 102.457031 67.621094 102.550781 67.046875 C 102.605469 66.691406 102.605469 9.84375 102.550781 8.757812 C 102.355469 5.109375 101.636719 2.847656 100.324219 1.757812 C 99.558594 1.128906 98.597656 0.742188 97.261719 0.523438 C 96.726562 0.433594 96.613281 0.433594 91.515625 0.417969 C 86.253906 0.40625 85.523438 0.417969 84.597656 0.558594 C 82.925781 0.804688 81.832031 1.402344 80.816406 2.625 C 80.042969 3.554688 79.214844 5.207031 78.441406 7.371094 C 76.84375 11.847656 61.457031 54.585938 61.386719 54.734375 C 61.253906 55.027344 61.035156 55.261719 60.785156 55.367188 C 60.613281 55.441406 60.515625 55.453125 60.242188 55.441406 C 59.953125 55.429688 59.875 55.414062 59.703125 55.304688 C 59.582031 55.226562 59.445312 55.09375 59.351562 54.957031 C 59.234375 54.777344 57.480469 49.949219 50.722656 31.148438 C 46.058594 18.175781 42.140625 7.289062 42.019531 6.953125 C 40.496094 2.835938 39.019531 1.136719 36.519531 0.65625 C 35.410156 0.4375 35.390625 0.4375 30.851562 0.421875 C 26.761719 0.40625 26.601562 0.410156 26.628906 0.480469 Z M 26.628906 0.480469 "/>
</g>
</svg>
