<?xml version="1.0" encoding="UTF-8"?>
<svg xmlns="http://www.w3.org/2000/svg" xmlns:xlink="http://www.w3.org/1999/xlink" width="24px" height="24px" viewBox="0 0 24 24" version="1.1">
<g id="surface1">
<path style=" stroke:none;fill-rule:nonzero;fill:rgb(0%,0%,0%);fill-opacity:1;" d="M 12.679688 1.503906 C 11.691406 1.648438 10.667969 2.171875 9.933594 2.902344 C 9.300781 3.539062 8.855469 4.320312 8.621094 5.230469 C 8.460938 5.835938 8.460938 6.914062 8.621094 7.519531 C 9.097656 9.355469 10.460938 10.714844 12.277344 11.160156 L 12.703125 11.265625 L 12.703125 12.40625 C 12.703125 13.460938 12.710938 13.566406 12.796875 13.734375 C 12.960938 14.058594 13.378906 14.195312 13.703125 14.035156 C 13.785156 13.992188 14.453125 13.363281 15.1875 12.632812 L 16.523438 11.300781 L 18.164062 11.28125 C 19.695312 11.269531 19.832031 11.257812 20.203125 11.15625 C 21.101562 10.914062 21.800781 10.527344 22.449219 9.910156 C 24.496094 7.960938 24.515625 4.84375 22.484375 2.875 C 21.796875 2.203125 21.203125 1.871094 20.179688 1.585938 C 19.808594 1.480469 19.773438 1.480469 16.382812 1.472656 C 14.503906 1.46875 12.835938 1.480469 12.679688 1.503906 Z M 13.734375 5.765625 C 13.945312 5.875 14.109375 6.140625 14.109375 6.375 C 14.109375 6.730469 13.761719 7.078125 13.402344 7.078125 C 13.1875 7.078125 12.894531 6.894531 12.792969 6.695312 C 12.617188 6.355469 12.726562 5.984375 13.058594 5.785156 C 13.285156 5.648438 13.492188 5.644531 13.734375 5.765625 Z M 16.546875 5.765625 C 16.757812 5.875 16.921875 6.140625 16.921875 6.375 C 16.921875 6.730469 16.574219 7.078125 16.214844 7.078125 C 16 7.078125 15.707031 6.894531 15.605469 6.695312 C 15.429688 6.355469 15.539062 5.984375 15.871094 5.785156 C 16.097656 5.648438 16.304688 5.644531 16.546875 5.765625 Z M 19.359375 5.765625 C 19.570312 5.875 19.734375 6.140625 19.734375 6.375 C 19.734375 6.730469 19.386719 7.078125 19.027344 7.078125 C 18.8125 7.078125 18.519531 6.894531 18.417969 6.695312 C 18.242188 6.355469 18.351562 5.984375 18.683594 5.785156 C 18.910156 5.648438 19.117188 5.644531 19.359375 5.765625 Z M 19.359375 5.765625 "/>
<path style=" stroke:none;fill-rule:nonzero;fill:rgb(0%,0%,0%);fill-opacity:1;" d="M 1.617188 4.753906 C 0.863281 4.9375 0.257812 5.53125 0.0664062 6.28125 C 0.00390625 6.53125 -0.0078125 6.71875 0.015625 7.265625 C 0.125 9.964844 1 12.53125 2.648438 15 C 3.449219 16.199219 4.242188 17.128906 5.390625 18.195312 C 8.160156 20.789062 11.785156 22.378906 15.234375 22.527344 C 16.039062 22.566406 16.335938 22.519531 16.789062 22.28125 C 17.320312 22.003906 17.726562 21.464844 17.855469 20.867188 C 17.886719 20.714844 17.90625 20.035156 17.90625 19.050781 C 17.90625 17.570312 17.902344 17.46875 17.8125 17.296875 C 17.761719 17.195312 17.652344 17.078125 17.5625 17.035156 C 17.316406 16.902344 13.117188 15.515625 12.96875 15.515625 C 12.792969 15.515625 12.617188 15.609375 11.652344 16.261719 L 10.8125 16.824219 L 10.542969 16.683594 C 8.953125 15.886719 6.710938 13.640625 5.90625 12.042969 L 5.769531 11.78125 L 6.332031 10.941406 C 6.984375 9.976562 7.078125 9.800781 7.078125 9.625 C 7.078125 9.476562 5.691406 5.277344 5.558594 5.03125 C 5.515625 4.941406 5.398438 4.832031 5.296875 4.78125 C 5.125 4.691406 5.03125 4.6875 3.484375 4.691406 C 2.367188 4.691406 1.777344 4.714844 1.617188 4.753906 Z M 1.617188 4.753906 "/>
</g>
</svg>
